<svg width="59" height="59" viewBox="0 0 59 59" fill="none" xmlns="http://www.w3.org/2000/svg">
<path d="M26.7286 6.44393L11.0386 5.07122C9.80065 4.96292 8.70932 5.87865 8.60102 7.11656L7.22832 22.8066C7.12001 24.0445 8.03574 25.1359 9.27365 25.2442L24.9637 26.6169C26.2016 26.7252 27.293 25.8094 27.4013 24.5715L28.774 8.88146C28.8823 7.64355 27.9665 6.55223 26.7286 6.44393Z" fill="white"/>
<path d="M24.5715 31.0997L8.88145 29.727C7.64354 29.6187 6.55222 30.5344 6.44391 31.7723L5.07121 47.4624C4.96291 48.7003 5.87864 49.7916 7.11655 49.8999L22.8066 51.2726C24.0445 51.3809 25.1359 50.4652 25.2442 49.2273L26.6169 33.5372C26.7252 32.2993 25.8094 31.208 24.5715 31.0997Z" fill="#DDDDE6" fill-opacity="0.4"/>
<path d="M51.3844 8.60103L35.6944 7.22833C34.4565 7.12002 33.3651 8.03575 33.2568 9.27366L31.8841 24.9637C31.7758 26.2016 32.6916 27.293 33.9295 27.4013L49.6195 28.774C50.8575 28.8823 51.9488 27.9665 52.0571 26.7286L53.4298 11.0386C53.5381 9.80066 52.6224 8.70933 51.3844 8.60103Z" fill="#DDDDE6" fill-opacity="0.4"/>
<path d="M49.2273 33.2568L33.5373 31.8841C32.2994 31.7758 31.208 32.6915 31.0997 33.9294L29.727 49.6195C29.6187 50.8574 30.5345 51.9487 31.7724 52.057L47.4624 53.4297C48.7003 53.538 49.7917 52.6223 49.9 51.3844L51.2727 35.6943C51.381 34.4564 50.4653 33.3651 49.2273 33.2568Z" fill="#DDDDE6" fill-opacity="0.4"/>
</svg>
