<svg width="59" height="59" viewBox="0 0 59 59" fill="none" xmlns="http://www.w3.org/2000/svg">
<path d="M52.0122 25.9802C51.8194 25.1459 51.1699 24.4932 50.3366 24.2963L37.7256 21.3226L33.0263 9.24902C32.6934 8.48025 31.9529 7.96715 31.1161 7.9255L27.9238 44.4141L38.8233 51.42C39.8689 52.0919 41.2612 51.789 41.9332 50.7434C42.2006 50.3273 42.3234 49.8346 42.2827 49.3416L41.2134 36.4288L51.2442 28.2291C51.9072 27.6866 52.2049 26.8149 52.0122 25.9802Z" fill="#DDDDE6"/>
<path d="M29.0051 8.89724L22.2806 19.9715L9.34483 20.7103C8.85117 20.7386 8.38058 20.9288 8.00581 21.2512C7.06364 22.0621 6.95721 23.4833 7.76808 24.4255L16.2226 34.2424L12.9273 46.7734C12.8016 47.2517 12.8371 47.7583 13.0281 48.2145C13.5083 49.361 14.8269 49.9011 15.9732 49.4209L27.9237 44.4141L31.1126 7.96445C30.3154 7.89649 29.5042 8.19924 29.0051 8.89724Z" fill="white"/>
</svg>
