<svg width="59" height="59" viewBox="0 0 59 59" fill="none" xmlns="http://www.w3.org/2000/svg">
<path d="M46.9016 8.20883L15.5214 5.46342C11.8112 5.14973 8.54416 7.89114 8.20882 11.5994L6.47137 31.4586L15.929 23.5227C18.8123 21.2227 22.9927 21.5884 25.4327 24.3541L31.3026 31.3882L33.466 29.573C36.3249 27.1882 40.5731 27.5599 42.9746 30.4049L50.9082 39.8599L53.0376 15.5214C53.3513 11.8113 50.6099 8.54417 46.9016 8.20883Z" fill="#DDDDE6"/>
<path d="M25.4327 24.3539C22.9927 21.5882 18.8123 21.2225 15.929 23.5224L6.47137 31.4583L5.46342 42.9793C5.14975 46.6895 7.89116 49.9566 11.5994 50.2919L42.9796 53.0373C44.8067 53.1964 46.6198 52.6048 48.0015 51.3988L25.4327 24.3539Z" fill="white"/>
<path d="M50.9082 39.8598L42.9745 30.4048C40.5731 27.5599 36.3249 27.1882 33.4659 29.5729L31.3026 31.3882L47.9925 51.3882C49.3164 50.251 50.142 48.6403 50.2921 46.9015L50.9082 39.8598Z" fill="#9D9D9D"/>
</svg>
